<svg id="Layer_1" data-name="Layer 1" xmlns="http://www.w3.org/2000/svg" fill="#efeee54b" viewBox="0 0 512 512"><title>headphone-outline</title><path d="M128,266.41l16.28,186.48-49.74,4.46q-35,3.12-62.46-19.85Q4.83,414.3,1.71,379.28L.37,363.66q-3.13-35,19.85-62.46t58-30.33ZM100.08,415.86,90.71,310.8l-8.92.67Q63.5,313,51.46,327.53A43,43,0,0,0,41,360.1l1.34,15.84q1.56,18.3,16.06,30.34a43,43,0,0,0,32.57,10.48ZM386.71,237.19q-1.12-55.54-37.92-95.69Q310.87,99.79,256,99.78T163.21,141.5q-36.81,40.15-37.92,95.69H79.78q1.11-74.5,51.08-128Q182.17,54.28,256,54.28t125.14,54.88q50,53.53,51.08,128Zm47.07,33.68q35,2.9,58,30.33t19.85,62.46l-1.34,15.61q-3.13,35-30.56,58.22-27.22,23-62.23,19.85l-49.74-4.46L384,266.41ZM471,360.1a43.05,43.05,0,0,0-10.48-32.57q-12-14.5-30.34-16.06l-8.92-.67-9.15,105.06,8.7.89a43.36,43.36,0,0,0,32.79-10.48q14.5-12.05,16.06-30.34Z"/></svg>